<?xml version="1.0" standalone="no"?>
<!DOCTYPE svg PUBLIC "-//W3C//DTD SVG 20010904//EN"
 "http://www.w3.org/TR/2001/REC-SVG-20010904/DTD/svg10.dtd">
<svg version="1.0" xmlns="http://www.w3.org/2000/svg"
 width="775.000000pt" height="198.000000pt" viewBox="0 0 775.000000 198.000000"
 preserveAspectRatio="xMidYMid meet">

<g transform="translate(0.000000,198.000000) scale(0.100000,-0.100000)"
fill="#5C1A1B" stroke="none">
<path d="M727 1286 c-318 -375 -610 -719 -648 -764 l-70 -82 454 0 454 0 220
258 219 257 928 5 929 5 187 220 187 220 -918 3 c-506 1 -919 5 -919 8 0 3 21
30 47 60 l47 54 925 0 926 1 170 200 c94 110 176 209 184 220 13 19 -2 19
-1365 18 l-1379 0 -578 -683z"/>
<path d="M3960 1764 c-96 -114 -179 -213 -183 -220 -7 -12 15 -14 120 -14
l128 0 180 212 c99 116 182 215 183 220 2 4 -54 8 -125 8 l-128 0 -175 -206z"/>
<path d="M4461 1752 l-183 -217 527 -3 c325 -1 525 -6 523 -12 -2 -5 -197
-238 -434 -517 -237 -279 -443 -523 -458 -540 l-28 -33 454 1 453 0 465 549
465 550 390 2 389 3 154 180 c84 99 167 197 183 218 l31 37 -1374 0 -1373 -1
-184 -217z"/>
<path d="M7284 1759 c-99 -116 -180 -215 -182 -220 -2 -5 50 -9 120 -9 l124 0
182 214 c100 118 182 217 182 220 0 4 -56 6 -124 6 l-123 0 -179 -211z"/>
<path d="M3578 1313 c-46 -54 -132 -155 -192 -225 l-108 -128 134 1 133 0 135
161 c74 88 159 189 188 224 l54 64 -131 0 -130 0 -83 -97z"/>
<path d="M1275 671 l-39 -41 215 0 c161 0 220 -3 233 -13 15 -11 16 -15 4 -25
-11 -8 -24 -9 -53 -1 -23 7 -108 9 -219 7 -200 -5 -251 -17 -307 -69 -44 -41
-37 -71 21 -86 83 -21 356 -13 426 14 17 6 17 5 5 -10 -12 -16 -6 -17 91 -17
l104 0 83 97 c140 164 125 174 -264 180 l-260 5 -40 -41z m350 -151 c-4 -6
-68 -10 -161 -10 -96 0 -154 4 -154 10 0 6 60 10 161 10 104 0 158 -3 154 -10z"/>
<path d="M2182 699 c-118 -14 -212 -66 -212 -119 0 -32 49 -43 233 -48 97 -2
177 -9 177 -13 0 -5 -105 -9 -234 -9 l-235 0 -30 -37 -31 -38 242 -3 c259 -3
351 6 430 40 46 19 88 62 88 88 0 28 -68 40 -239 40 -154 0 -207 8 -165 24 9
3 116 6 238 6 l223 0 32 40 32 40 -238 -1 c-131 -1 -271 -5 -311 -10z"/>
<path d="M2761 673 l-31 -38 110 -3 c60 -1 110 -5 110 -8 0 -5 -50 -65 -144
-171 l-19 -23 105 0 106 0 83 99 84 100 120 0 120 1 28 34 c15 19 27 37 27 40
0 4 -150 6 -334 6 l-335 0 -30 -37z"/>
<path d="M5578 638 c-35 -40 -90 -103 -122 -140 l-58 -68 70 0 c67 0 72 2 92
30 20 27 26 30 79 30 56 0 59 -2 71 -30 12 -30 13 -30 92 -30 72 0 79 2 73 18
-21 49 -18 56 33 74 83 30 166 128 134 160 -19 19 -94 27 -249 28 l-151 0 -64
-72z m308 -19 c3 -6 -1 -18 -10 -27 -13 -13 -40 -18 -118 -20 l-101 -4 22 31
c22 31 23 31 111 31 54 0 92 -4 96 -11z"/>
<path d="M6161 671 l-33 -41 134 0 c144 0 174 -8 147 -36 -13 -12 -21 -14 -37
-5 -28 15 -215 14 -265 -1 -45 -13 -125 -83 -129 -112 -5 -36 36 -48 152 -42
58 3 116 8 129 12 17 5 22 4 17 -4 -5 -9 12 -12 61 -12 l68 0 79 95 c44 51 84
101 88 110 12 20 2 51 -20 61 -9 4 -94 9 -188 12 l-171 4 -32 -41z m184 -151
c-3 -6 -50 -10 -106 -10 -59 0 -99 4 -99 10 0 6 42 10 106 10 67 0 103 -4 99
-10z"/>
<path d="M6808 699 c-81 -12 -147 -49 -208 -116 -118 -131 -94 -153 160 -152
l145 1 34 39 33 39 -135 0 c-89 0 -138 4 -143 11 -3 6 14 32 40 58 l46 46 149
5 148 5 27 31 c14 18 26 35 26 38 0 9 -255 5 -322 -5z"/>
<path d="M7148 638 c-35 -40 -90 -103 -122 -140 l-58 -68 69 0 69 0 59 70 c32
39 61 67 65 63 4 -4 18 -34 31 -67 13 -32 29 -60 35 -63 6 -2 43 -3 82 -1 l71
3 -30 69 c-16 38 -26 72 -22 76 4 4 66 33 137 66 l129 59 -76 3 c-74 3 -78 2
-203 -58 -70 -33 -130 -58 -132 -55 -3 3 8 20 24 38 16 17 38 42 48 55 l19 22
-66 0 -65 0 -64 -72z"/>
<path d="M2581 246 c-28 -34 27 -69 75 -47 44 20 23 61 -32 61 -17 0 -37 -6
-43 -14z"/>
<path d="M5851 246 c-28 -34 27 -69 75 -47 44 20 23 61 -32 61 -17 0 -37 -6
-43 -14z"/>
<path d="M42 214 c-12 -8 -22 -26 -22 -39 0 -39 35 -55 122 -55 45 0 78 -4 78
-10 0 -6 -38 -10 -95 -10 -95 0 -95 0 -95 -25 l0 -25 113 0 c129 0 160 11 165
55 5 43 -18 55 -109 55 -43 0 -81 5 -84 10 -4 6 30 10 94 10 l101 0 0 25 0 25
-123 0 c-95 0 -128 -4 -145 -16z"/>
<path d="M363 220 c-27 -11 -43 -40 -43 -80 0 -72 38 -90 193 -90 97 0 97 0
97 25 0 25 -1 25 -87 25 -49 0 -94 4 -101 9 -8 5 -12 21 -10 37 l3 29 98 3
c96 3 97 3 97 27 l0 25 -112 -1 c-62 0 -123 -4 -135 -9z"/>
<path d="M640 205 l0 -25 100 0 c73 0 100 -3 100 -12 0 -10 -23 -12 -91 -10
-76 3 -94 1 -110 -14 -27 -24 -21 -65 11 -81 30 -15 128 -17 164 -3 17 6 26 6
26 0 0 -6 20 -10 45 -10 l45 0 0 68 c0 37 -4 72 -8 78 -17 26 -56 34 -166 34
l-116 0 0 -25z m200 -95 c0 -6 -28 -10 -65 -10 -37 0 -65 4 -65 10 0 6 28 10
65 10 37 0 65 -4 65 -10z"/>
<path d="M960 140 l0 -90 45 0 c43 0 45 1 45 30 l0 30 100 0 100 0 0 25 0 25
-100 0 c-60 0 -100 4 -100 10 0 6 40 10 100 10 l100 0 0 25 0 25 -145 0 -145
0 0 -90z"/>
<path d="M1280 140 l0 -90 45 0 c43 0 45 1 45 30 l0 30 100 0 100 0 0 25 0 25
-100 0 c-60 0 -100 4 -100 10 0 6 40 10 100 10 l100 0 0 25 0 25 -145 0 -145
0 0 -90z"/>
<path d="M1633 220 c-28 -11 -43 -40 -43 -80 0 -69 39 -90 170 -90 90 0 146
14 160 40 16 30 12 86 -9 111 -18 23 -27 24 -138 26 -65 2 -128 -2 -140 -7z
m205 -74 c2 -16 -2 -32 -10 -37 -15 -10 -109 -12 -132 -3 -16 6 -22 54 -9 68
4 4 39 5 78 4 69 -3 70 -3 73 -32z"/>
<path d="M1950 140 l0 -90 135 0 135 0 0 25 c0 25 -1 25 -90 25 l-90 0 0 65 0
65 -45 0 -45 0 0 -90z"/>
<path d="M2230 139 l0 -91 139 4 c165 4 181 11 181 87 0 82 -19 91 -189 91
l-131 0 0 -91z m228 4 l-3 -38 -67 -3 -68 -3 0 41 0 40 71 0 70 0 -3 -37z"/>
<path d="M2700 140 l0 -90 45 0 45 0 0 45 c0 25 2 45 5 45 3 0 31 -20 63 -45
47 -37 64 -45 100 -45 l42 0 0 90 0 90 -44 0 -45 0 -3 -45 -3 -45 -55 45 c-48
38 -61 44 -102 45 l-48 0 0 -90z"/>
<path d="M3040 210 c-24 -24 -25 -39 -6 -66 13 -17 27 -19 115 -19 56 0 101
-3 101 -6 0 -14 -34 -19 -121 -19 l-89 0 0 -26 0 -26 124 3 c157 5 166 11 166
109 l0 68 -135 1 c-122 1 -137 -1 -155 -19z m200 -40 c-20 -13 -117 -13 -125
0 -4 6 21 10 67 10 51 0 68 -3 58 -10z"/>
<path d="M3522 214 c-23 -16 -29 -43 -12 -60 8 -8 6 -15 -5 -24 -8 -7 -15 -20
-15 -30 0 -32 29 -44 118 -47 97 -4 135 8 140 45 2 12 8 22 13 22 5 0 9 9 9
20 0 11 -4 20 -10 20 -5 0 -10 16 -10 35 0 35 0 35 -45 35 -45 0 -45 0 -45
-35 0 -30 -3 -35 -22 -35 -13 0 -30 5 -38 10 -12 8 -11 10 8 10 17 0 22 6 22
25 0 23 -4 25 -43 25 -23 0 -53 -7 -65 -16z m138 -104 c0 -5 -15 -10 -34 -10
-19 0 -38 5 -41 10 -4 6 10 10 34 10 23 0 41 -4 41 -10z"/>
<path d="M3942 214 c-12 -8 -22 -26 -22 -39 0 -39 35 -55 122 -55 45 0 78 -4
78 -10 0 -6 -38 -10 -95 -10 -95 0 -95 0 -95 -25 l0 -25 113 0 c129 0 160 11
165 55 5 43 -18 55 -109 55 -43 0 -81 5 -84 10 -4 6 30 10 94 10 l101 0 0 25
0 25 -123 0 c-95 0 -128 -4 -145 -16z"/>
<path d="M4230 162 c0 -100 10 -107 155 -107 145 0 155 7 155 107 l0 68 -40 0
-40 0 0 -54 c0 -67 -12 -78 -82 -74 l-53 3 -3 63 -3 62 -44 0 -45 0 0 -68z"/>
<path d="M4570 140 l0 -90 45 0 c32 0 45 4 45 14 0 11 21 15 89 18 70 2 93 7
110 22 31 28 28 79 -5 105 -24 19 -40 21 -155 21 l-129 0 0 -90z m215 15 c0
-18 -8 -20 -62 -23 -62 -3 -63 -2 -63 23 0 25 1 26 63 23 54 -3 62 -5 62 -23z"/>
<path d="M4900 140 l0 -90 45 0 c32 0 45 4 45 14 0 11 21 15 89 18 70 2 93 7
110 22 31 28 28 79 -5 105 -24 19 -40 21 -155 21 l-129 0 0 -90z m215 15 c0
-18 -8 -20 -62 -23 -62 -3 -63 -2 -63 23 0 25 1 26 63 23 54 -3 62 -5 62 -23z"/>
<path d="M5230 140 l0 -90 135 0 135 0 0 25 c0 25 -1 25 -90 25 l-90 0 0 65 0
65 -45 0 -45 0 0 -90z"/>
<path d="M5510 201 c0 -16 9 -39 19 -52 18 -22 27 -24 110 -24 123 0 113 -19
-12 -23 -97 -3 -97 -3 -97 -28 l0 -26 124 3 c157 5 166 11 166 111 l0 68 -44
0 c-41 0 -45 -2 -48 -27 -3 -27 -5 -28 -63 -28 -58 0 -60 1 -63 28 -3 25 -7
27 -48 27 -42 0 -44 -1 -44 -29z"/>
<path d="M5970 140 l0 -90 45 0 45 0 0 45 c0 25 2 45 5 45 3 0 31 -20 63 -45
47 -37 64 -45 100 -45 l42 0 0 90 0 90 -44 0 -45 0 -3 -45 -3 -45 -55 45 c-48
38 -61 44 -102 45 l-48 0 0 -90z"/>
<path d="M6310 210 c-24 -24 -25 -39 -6 -66 13 -17 27 -19 115 -19 56 0 101
-3 101 -6 0 -14 -34 -19 -121 -19 l-89 0 0 -26 0 -26 124 3 c157 5 166 11 166
109 l0 68 -135 1 c-122 1 -137 -1 -155 -19z m200 -40 c-20 -13 -117 -13 -125
0 -4 6 21 10 67 10 51 0 68 -3 58 -10z"/>
<path d="M6770 140 l0 -90 135 0 135 0 0 25 c0 25 -1 25 -90 25 l-90 0 0 65 0
65 -45 0 -45 0 0 -90z"/>
<path d="M6970 205 c0 -23 3 -25 50 -25 l50 0 0 -65 0 -65 40 0 40 0 0 65 0
65 50 0 c47 0 50 2 50 25 l0 25 -140 0 -140 0 0 -25z"/>
<path d="M7270 139 l0 -91 139 4 c165 4 181 11 181 87 0 82 -19 91 -189 91
l-131 0 0 -91z m228 4 l-3 -38 -67 -3 -68 -3 0 41 0 40 71 0 70 0 -3 -37z"/>
<path d="M2580 115 l0 -65 45 0 45 0 0 65 0 65 -45 0 -45 0 0 -65z"/>
<path d="M5850 115 l0 -65 45 0 45 0 0 65 0 65 -45 0 -45 0 0 -65z"/>
<path d="M7623 103 c-18 -7 -16 -40 3 -47 48 -18 99 9 74 39 -12 14 -52 19
-77 8z"/>
</g>
</svg>
